<?xml version="1.0" ?><!DOCTYPE svg  PUBLIC '-//W3C//DTD SVG 1.1//EN'  'http://www.w3.org/Graphics/SVG/1.1/DTD/svg11.dtd'><svg enable-background="new 0 0 64 64" id="Layer_1" version="1.1" viewBox="0 0 64 64" xml:space="preserve" xmlns="http://www.w3.org/2000/svg" xmlns:xlink="http://www.w3.org/1999/xlink"><path d="M7,21v28.5c0,0,5.5-3,13.8-3s8.2,1.1,8.2,1.1S28.5,50,31.8,50h0.5c3.2,0,2.7-2.4,2.7-2.4s0-1.2,8.2-1.2  S57,49.5,57,49.5V21" fill="#00A388"/><path d="M32,18.7c0,0-10-6.3-22,0c0,0.2,0,26.5,0,26.5s9.2-5.8,22,0c12.8-5.8,22,0,22,0s0-26.2,0-26.5  C42,12.5,32,18.7,32,18.7z" fill="#E5E5E5"/><path d="  M32,18.7c0,0-10-6.3-22,0c0,0.2,0,26.5,0,26.5s9.2-5.8,22,0c12.8-5.8,22,0,22,0s0-26.2,0-26.5C42,12.5,32,18.7,32,18.7z" fill="none" stroke="#2C3E50" stroke-linecap="round" stroke-linejoin="round" stroke-miterlimit="10" stroke-width="2"/><path d="  M7,21v28.5c0,0,5.5-3,13.8-3s8.2,1.1,8.2,1.1S28.5,50,31.8,50h0.5c3.2,0,2.7-2.4,2.7-2.4s0-1.2,8.2-1.2S57,49.5,57,49.5V21" fill="none" stroke="#2C3E50" stroke-linecap="round" stroke-linejoin="round" stroke-miterlimit="10" stroke-width="2"/><line fill="none" stroke="#2C3E50" stroke-linecap="round" stroke-linejoin="round" stroke-miterlimit="10" stroke-width="2" x1="32" x2="32" y1="24" y2="39"/></svg>